<svg viewBox="0 0 24 24" xmlns="http://www.w3.org/2000/svg"><path d="M16.43 8.89h3.05c1.46 0 2.64 1.2 2.64 2.67v9.77A2.65 2.65 0 0119.48 24H3.64A2.65 2.65 0 011 21.33v-9.77a2.65 2.65 0 012.64-2.67h3.05l1.5-2.27a.88.88 0 01.73-.4h5.28c.3 0 .57.15.73.4l1.5 2.27zM9.4 8l-1.5 2.27a.88.88 0 01-.73.4H3.64a.88.88 0 00-.88.89v9.77c0 .5.4.9.88.9h15.84c.49 0 .88-.4.88-.9v-9.77a.88.88 0 00-.88-.9h-3.52a.88.88 0 01-.73-.39L13.73 8H9.39zm2.17 12.44A4.42 4.42 0 017.16 16a4.42 4.42 0 014.4-4.44c2.43 0 4.4 1.99 4.4 4.44a4.42 4.42 0 01-4.4 4.44zm0-1.77c1.46 0 2.64-1.2 2.64-2.67a2.65 2.65 0 00-2.64-2.67A2.65 2.65 0 008.92 16a2.65 2.65 0 002.64 2.67zm9.24-16h1.84a.8.8 0 01.8.8v.17a.8.8 0 01-.8.8H20.8v1.87a.8.8 0 01-.8.8h-.16a.8.8 0 01-.8-.8V4.44H17.2a.8.8 0 01-.8-.8v-.17a.8.8 0 01.8-.8h1.84V.8a.8.8 0 01.8-.8H20a.8.8 0 01.8.8v1.87z"/></svg>
