<svg viewBox="0 0 24 24" xmlns="http://www.w3.org/2000/svg"><path d="M3.92 14.3h1.5c.36 0 .66.27.7.62l.01.1v7.76c0 .36-.27.67-.62.71l-.1.01h-1.5a.72.72 0 0 1-.7-.62l-.01-.1v-7.76c0-.36.27-.67.62-.71l.1-.01h1.5zm15.41-1.73c2.03 0 3.67 1.61 3.67 3.6a3.6 3.6 0 0 1-2.2 3.3v3.41a.72.72 0 0 1-.72.62h-1.6a.72.72 0 0 1-.61-.72v-3.32l-.19-.08a3.59 3.59 0 0 1-2.01-3.21c0-1.99 1.64-3.6 3.66-3.6zm0 1.8c-1 0-1.83.8-1.83 1.8s.82 1.8 1.83 1.8c1.02 0 1.84-.8 1.84-1.8s-.82-1.8-1.84-1.8zM3.92.5h1.5c.36 0 .66.27.7.62l.01.1v3.32a3.6 3.6 0 0 1 2.2 3.3c0 1.98-1.64 3.59-3.66 3.59A3.63 3.63 0 0 1 1 7.83c0-1.4.82-2.62 2.02-3.2l.18-.1V1.23c0-.36.27-.67.62-.71l.1-.01h1.5zm16.16 0h.1c.35.05.62.36.62.72V9.08a.72.72 0 0 1-.72.62h-1.6a.72.72 0 0 1-.61-.72V1.12A.72.72 0 0 1 18.6.5zM4.67 6.03c-1.02 0-1.84.8-1.84 1.8s.82 1.8 1.84 1.8 1.83-.8 1.83-1.8-.82-1.8-1.83-1.8z" fill-rule="evenodd"/></svg>
