<svg viewBox="0 0 24 24" xmlns="http://www.w3.org/2000/svg"><path d="M18.93 1.58l.43.15a3.15 3.15 0 012.08 3.33l-.36 3.43c.32.56.48 1.23.4 1.94l-.85 8.03c-.1.96-.63 1.82-1.43 2.33l-.23.15a13.6 13.6 0 01-6.54 2.03c-3.1.2-5.7-.65-7.58-2.67-1.9-2.03-2.61-4.8-2.27-8.03.33-3.06 1.56-5.7 3.65-7.79A11.81 11.81 0 0114 1.04a12.8 12.8 0 014.93.54zm-.87 3.16a9.94 9.94 0 00-3.85-.41A8.88 8.88 0 008.3 6.96a9.69 9.69 0 00-2.77 6c-.25 2.4.23 4.29 1.46 5.62 1.21 1.33 2.98 1.9 5.25 1.75 2-.13 3.74-.66 5.2-1.6l.23-.15.86-8.2-6.03.48-.4 3.8 1.93-.2-.18 1.7c-.33.14-.75.22-1.25.26-1.03.06-1.77-.21-2.26-.82-.5-.61-.7-1.56-.56-2.86.14-1.31.6-2.37 1.37-3.18a4.11 4.11 0 012.81-1.33c1.38-.1 2.5.13 3.36.64l.71.42.46-4.4z" fill="#000" fill-rule="nonzero"/></svg>
