<svg viewBox="0 0 24 24" xmlns="http://www.w3.org/2000/svg"><path d="M12 1a11 11 0 110 22 11 11 0 010-22zM7.05 13h-4a9 9 0 006.68 7.71A16.33 16.33 0 017.05 13zm13.9 0h-4a16.3 16.3 0 01-2.68 7.71 9 9 0 006.64-7.42l.04-.29zm-6 0h-5.9A14.3 14.3 0 0012 20.45a14.3 14.3 0 002.9-7.03l.05-.42zM9.73 3.29h-.04A9 9 0 003.06 11h3.99a16.3 16.3 0 012.68-7.7zm2.27.26l-.29.39A14.28 14.28 0 009.05 11h5.9a14.3 14.3 0 00-2.66-7.06L12 3.55zm2.27-.26l.2.3a16.34 16.34 0 012.48 7.4h4a9 9 0 00-6.68-7.7z" fill="#000" fill-rule="nonzero"/></svg>
