<svg viewBox="0 0 24 24" xmlns="http://www.w3.org/2000/svg"><g fill="none" fill-rule="evenodd"><path d="M9.5 2.61a9.3 9.3 0 0 1 9.61 2.04c-.3.34-.63.66-.94.99L16.4 7.46a5.2 5.2 0 0 0-2.08-1.26A5.55 5.55 0 0 0 8.6 7.74a6.2 6.2 0 0 0-1.4 2.34L4.03 7.55A9.8 9.8 0 0 1 9.5 2.61" fill="#d84138"/><path d="M3.19 10.05c.17-.86.45-1.7.84-2.5l3.16 2.53a6.2 6.2 0 0 0 0 3.88l-3.16 2.53a10.23 10.23 0 0 1-.84-6.44" fill="#f1b728"/><path d="M12.65 10.15h9.09c.3 1.75.24 3.58-.25 5.29a9.09 9.09 0 0 1-2.44 4.13l-3.07-2.46a4.69 4.69 0 0 0 1.94-3.07h-5.26v-3.89" fill="#5473aa"/><path d="M4.03 16.49c1.05-.85 2.1-1.7 3.16-2.53A6.17 6.17 0 0 0 9.4 17a5.59 5.59 0 0 0 4.46.96 5.43 5.43 0 0 0 2.12-.86l3.07 2.46a8.63 8.63 0 0 1-3.95 2.12c-1.62.37-3.33.39-4.94-.06a9.5 9.5 0 0 1-3.5-1.82c-1.1-.9-2-2.04-2.63-3.32" fill="#339f50"/></g></svg>
