<svg xmlns="http://www.w3.org/2000/svg" viewBox="0 0 24 24"><path d="M.293.293a1 1 0 011.414 0l22 22a1 1 0 01-1.414 1.414l-4.468-4.466A11.089 11.089 0 0112 21c-3.38 0-6.339-1.632-8.855-4.316a20.492 20.492 0 01-2.25-2.891 15.188 15.188 0 01-.79-1.346 1 1 0 01.014-.92 19.45 19.45 0 014.45-5.544L.292 1.707a1 1 0 010-1.414zm5.694 7.109a17.45 17.45 0 00-3.844 4.601 18.513 18.513 0 002.462 3.313C6.776 17.632 9.255 19 11.984 19a9.07 9.07 0 004.387-1.214l-2.322-2.321A4 4 0 018.535 9.95zM12 3c3.38 0 6.339 1.632 8.855 4.316a20.492 20.492 0 012.25 2.891c.385.596.649 1.065.79 1.346a1 1 0 01-.013.918 19.5 19.5 0 01-2.277 3.363 1 1 0 01-1.53-1.288 17.5 17.5 0 001.783-2.548 18.513 18.513 0 00-2.463-3.314C17.224 6.368 14.745 5 11.998 5a8.12 8.12 0 00-1.87.214 1 1 0 01-.456-1.948A10.116 10.116 0 0112 3zm-1.972 8.442a1.999 1.999 0 002.53 2.53z"/></svg>
