<svg viewBox="0 0 24 24" xmlns="http://www.w3.org/2000/svg"><path d="M12 0C8.74 0 8.33.01 7.05.07a8.8 8.8 0 00-2.9.56c-.8.3-1.47.72-2.14 1.38A5.9 5.9 0 00.63 4.14c-.3.76-.5 1.63-.56 2.91A86.28 86.28 0 000 12c0 3.26.01 3.67.07 4.95.06 1.27.26 2.15.56 2.9.3.8.72 1.47 1.38 2.13a5.88 5.88 0 002.13 1.39c.76.3 1.63.5 2.91.56 1.28.06 1.7.07 4.95.07 3.26 0 3.67-.01 4.95-.07a8.82 8.82 0 002.91-.56c.79-.3 1.46-.72 2.12-1.39a5.9 5.9 0 001.39-2.12c.3-.76.5-1.64.56-2.91.05-1.28.07-1.7.07-4.95 0-3.26-.02-3.67-.07-4.95a8.89 8.89 0 00-.56-2.91 5.89 5.89 0 00-1.39-2.13A5.86 5.86 0 0019.86.63c-.77-.3-1.64-.5-2.92-.56A85.14 85.14 0 0012 0zm-1.08 2.16H12c3.2 0 3.58.01 4.85.07 1.17.06 1.8.25 2.23.41.56.22.96.48 1.38.9.42.42.68.82.9 1.38.16.42.36 1.06.4 2.23.07 1.26.08 1.64.08 4.85 0 3.2-.01 3.58-.07 4.84a6.64 6.64 0 01-.41 2.23c-.22.56-.48.96-.9 1.38-.42.42-.82.68-1.38.9-.42.16-1.06.36-2.23.41-1.26.06-1.64.07-4.85.07-3.2 0-3.58-.01-4.85-.07a6.66 6.66 0 01-2.23-.41 3.72 3.72 0 01-1.38-.9 3.72 3.72 0 01-.9-1.38 6.63 6.63 0 01-.4-2.23A83.89 83.89 0 012.15 12c0-3.2.02-3.58.07-4.84.06-1.17.25-1.8.42-2.23.21-.56.47-.96.9-1.38.41-.42.81-.68 1.37-.9a6.63 6.63 0 012.23-.41c1.1-.05 1.54-.07 3.77-.07zm7.49 2a1.44 1.44 0 100 2.88 1.44 1.44 0 000-2.89zM12 5.83a6.16 6.16 0 100 12.32 6.16 6.16 0 000-12.32zM12 8a4 4 0 110 8 4 4 0 010-8z"/></svg>
