<svg xmlns="http://www.w3.org/2000/svg" viewBox="0 0 24 24"><path d="M2.583 17.419l3.803-1.268a1 1 0 01.767.056A7.382 7.382 0 0010.5 17a7.502 7.502 0 006.708-4.15 7.38 7.38 0 00.793-3.347l.001-.448c-.21-3.807-3.25-6.846-7.001-7.055h-.503a7.385 7.385 0 00-3.35.795 7.5 7.5 0 00-4.147 6.708 7.38 7.38 0 00.792 3.346 1 1 0 01.056.767L2.583 17.42zm17.419-7.92a9.376 9.376 0 01-1.006 4.248A9.5 9.5 0 0110.504 19a9.38 9.38 0 01-3.868-.824L1.318 19.95a1 1 0 01-1.265-1.265l1.773-5.318A9.498 9.498 0 016.25 1.007 9.378 9.378 0 0110.5 0l.556.002C15.882.268 19.734 4.12 20.002 9v.499z"/></svg>
