<svg xmlns="http://www.w3.org/2000/svg" viewBox="0 0 24 24"><path d="M16.76 2.8c.273 0 .494.22.494.493V18.59a2.636 2.636 0 001.938 2.54.047.047 0 01-.012.092H5.083a2.303 2.303 0 01-2.303-2.303V3.293c0-.272.22-.493.493-.493zm3.948 3.29c.272 0 .493.22.493.493v12.006a1.316 1.316 0 01-2.632 0V6.09zm-6.296 10.526h-8.79a.21.21 0 00-.21.21v.895c0 .116.094.21.21.21h8.79a.21.21 0 00.21-.21v-.895a.21.21 0 00-.21-.21zm0-2.632h-8.79a.21.21 0 00-.21.21v.895a.21.21 0 00.21.211h8.79a.21.21 0 00.21-.21v-.895a.21.21 0 00-.21-.21zm0-2.631h-8.79a.21.21 0 00-.21.21v.895c0 .116.094.21.21.21h8.79a.21.21 0 00.21-.21v-.895a.21.21 0 00-.21-.21zM9.148 6.089H5.622a.21.21 0 00-.21.211v3.526c0 .117.094.21.21.21h3.526a.21.21 0 00.21-.21V6.3a.21.21 0 00-.21-.21zm5.264 2.632h-3.527a.21.21 0 00-.21.21v.895c0 .117.094.21.21.21h3.527a.21.21 0 00.21-.21v-.894a.21.21 0 00-.21-.21zm0-2.632h-3.527a.21.21 0 00-.21.211v.895c0 .116.094.21.21.21h3.527a.21.21 0 00.21-.21V6.3a.21.21 0 00-.21-.21z"/></svg>
