<svg viewBox="0 0 24 24" xmlns="http://www.w3.org/2000/svg"><path d="M17.46 9.15h-.02L13 11.39v9.77l7.45-3.73a1 1 0 0 0 .55-.9V7.39l-3.54 1.77zM9.24 3.26L17 7.14l2.76-1.38-7.32-3.66a1 1 0 0 0-.88 0L9.24 3.26zM7.01 4.38L4.24 5.76 12 9.64l2.76-1.38-7.75-3.88zM6.47 2.4a1 1 0 0 1 .17-.08L10.67.3a3 3 0 0 1 2.67 0l8 4A3 3 0 0 1 23 7v9.53a3 3 0 0 1-1.66 2.68l-8 4a3 3 0 0 1-2.69 0l-8-4A3 3 0 0 1 1 16.51V7A3 3 0 0 1 2.66 4.3l3.8-1.9zM11 21.15v-9.77l-8-4v9.15a1 1 0 0 0 .55.9L11 21.14z" fill="#000" fill-rule="nonzero"/></svg>
