<svg xmlns="http://www.w3.org/2000/svg" xmlns:xlink="http://www.w3.org/1999/xlink" viewBox="0 0 34 24">
    <defs>
        <path id="prefix__a" d="M35.64 18v4.903c0 .035.008.07.024.1.047.092.148.138.244.118l.056-.02.175-.088c.07-.036.15-.044.225-.026l.073.027.334.175c.07.036.15.045.226.027l.073-.027.341-.175c.07-.036.15-.045.225-.027l.073.027.342.176c.07.036.15.045.225.027l.073-.027.342-.176c.07-.036.15-.045.225-.027l.073.027.171.088c.031.016.065.024.1.024.101 0 .187-.068.212-.161l.008-.059V18h5.187c.16 0 .295.118.326.274l.007.069v23.314c0 .166-.114.304-.266.336l-.067.007H30.3c.015-.075.025-.151.03-.228l.003-.115V25.2c0-.897-.67-1.632-1.523-1.708l-.143-.006h-7v-5.143c0-.166.114-.304.266-.336L22 18h13.64zm-6.973 6.857c.184 0 .333.154.333.343v16.457c0 .19-.15.343-.333.343H11.333c-.184 0-.333-.154-.333-.343V25.2c0-.19.15-.343.333-.343zm-6.334 3.429h-4.666c-.737 0-1.334.614-1.334 1.371 0 .758.597 1.372 1.334 1.372h4.666c.737 0 1.334-.614 1.334-1.372 0-.757-.597-1.371-1.334-1.371z"/>
    </defs>
    <g fill="none" fill-rule="evenodd" transform="translate(-11 -18)">
        <use fill="#FFF" fill-rule="nonzero" xlink:href="#prefix__a"/>
    </g>
</svg>
