<svg viewBox="0 0 72 24" xmlns="http://www.w3.org/2000/svg"><path d="M42.5 15.26c-1.34-.16-2.35-.88-3.38-1.57-.41-.27-.87-.47-1.31-.7-.35-.17-.55-.08-.7.32a8.72 8.72 0 0 1-2.1 3.3c-.06.06-.11.14-.21.27.3.1.54.22.8.25.73.1 1.48.15 2.22.2 1.51.13 2.91.6 4.3 1.27.44-1.02.38-2.15.39-3.34m-3.4 5.14l-.7-.65a.99.99 0 0 0-1.15-.2.98.98 0 0 1-1.12-.17c-.59-.49-1.28-.49-1.99-.44-.58.04-1.17.07-1.76.06a2.1 2.1 0 0 1-.76-.18c-.67-.29-.84-.69-.46-1.3.51-.8.13-1.83-.64-2.24-.45-.24-.94-.4-1.4-.6-1.03-.45-2.07-.86-3.06-1.36a4.07 4.07 0 0 1-2.36-2.88 3.13 3.13 0 0 0-1.93.59c-1.22.88-2.4 1.81-3.54 2.8-1.1.95-2.12 2.01-3.2 3-1.22 1.15-2.56 2.05-4.32 2.15-2.2.12-4.91-1.63-5.63-3.74-.11-.32-.1-.71-.06-1.06a1 1 0 0 1 .87-.91c.5-.1.89.12 1.14.54.24.4.44.83.64 1.25.8 1.7 2.3 2.38 4.07 1.78 1.5-.52 2.7-1.5 3.83-2.6 1.3-1.25 2.54-2.56 3.88-3.77a9.21 9.21 0 0 1 4.9-2.4c.13-.01.28-.13.36-.24 2.31-3.36 5.65-4.94 9.52-5.44 3.01-.4 5.99-.02 8.91.8 1.03.28 2.05.62 3.14.48.46-.06.91-.18 1.35-.33 1-.35 1.99-.43 2.99-.02.57.23 1.1.17 1.64-.14a14.72 14.72 0 0 1 4.59-1.58c.2-.04.38-.22.54-.35.18-.15.31-.35.48-.5.33-.3.7-.34 1.05-.06.2.14.34.15.58.05.2-.1.52 0 .76.1.17.06.33.24.42.42.3.6.82.85 1.4 1.07.41.16.81.37 1.23.53.8.3 1.18.9 1.34 1.71.06.28.26.54.43.78.3.4.67.75.9 1.18.31.55.12.9-.47 1.1-.08.03-.2.1-.22.18-.2.56-.66.75-1.15.94-.26.1-.53.23-.73.42-.57.54-1.01.5-1.61.01-.33-.27-.8-.4-1.21-.5-.62-.15-1.25-.26-1.88-.3a2.5 2.5 0 0 0-1.2.14 9.7 9.7 0 0 0-2.87 2.02c-.78.8-1.74 1.4-2.6 2.1-.35.27-.7.54-1 .85a7.87 7.87 0 0 1-2.68 1.89 4.62 4.62 0 0 0-2.66 2.73 3.38 3.38 0 0 1-1.43 1.74c-1.72 1.07-3.42 2.18-5.35 2.88-1.08.4-2.15.74-3.3.86-.36.04-.72.17-1.08.18-.38.02-.76-.08-.9-.52-.12-.4.07-.67.4-.9.14-.1.16-.36.28-.5.28-.32.59-.61.89-.92l.03-.03c.72-.04 1.34-.63 2.12-.33.59.24 1.16.2 1.74-.17" fill="#000" fill-rule="evenodd"/></svg>
