<svg xmlns="http://www.w3.org/2000/svg" viewBox="0 0 512 512"><path d="M248.16 343.22c-14.64 0-26.5 12.2-26.5 26.84 0 14.3 11.51 26.84 26.5 26.84S275 384.35 275 370.06c0-14.64-12.2-26.84-26.84-26.84zM252.69 140c-47.06 0-68.67 27.89-68.67 46.71 0 13.6 11.5 19.87 20.92 19.87 18.82 0 11.15-26.84 46.7-26.84 17.43 0 31.38 7.67 31.38 23.7 0 18.83-19.52 29.63-31.03 39.4-10.1 8.7-23.35 23-23.35 52.97 0 18.13 4.88 23.36 19.17 23.36 17.08 0 20.56-7.67 20.56-14.3 0-18.12.35-28.58 19.53-43.56 9.4-7.32 39.04-31.03 39.04-63.8s-29.63-57.5-74.25-57.5z"/><path d="M256 0C114.52 0 0 114.5 0 256v236a20 20 0 0 0 20 20h236c141.48 0 256-114.5 256-256C512 114.52 397.5 0 256 0zm0 472H40V256c0-119.38 96.6-216 216-216 119.38 0 216 96.6 216 216 0 119.38-96.6 216-216 216z"/></svg>
