<svg viewBox="0 0 24 24" xmlns="http://www.w3.org/2000/svg"><path d="M10.49 4v2.91a7.563 7.563 0 00-5.3 2.129c-.27.261-.518.542-.744.84.268-.04.543-.062.821-.062l.002.001c2.896 0 5.244 2.28 5.244 5.091C10.513 17.721 8.165 20 5.27 20 2.372 20 .024 17.72.024 14.91L0 14.181C0 8.559 4.696 4 10.49 4zm13.486 0v2.91a7.563 7.563 0 00-5.299 2.129c-.27.261-.519.542-.744.84.268-.04.542-.062.822-.062v.001c2.897 0 5.245 2.28 5.245 5.091C24 17.721 21.652 20 18.755 20c-2.896 0-5.245-2.28-5.245-5.09l-.023-.728C13.487 8.559 18.183 4 23.976 4z" fill="#000" fill-rule="nonzero"/></svg>
