<svg viewBox="0 0 24 24" xmlns="http://www.w3.org/2000/svg"><path d="M18.98 5.52a2.63 2.63 0 0 1-2.1-1.7c-1.57-3.85-3.34-1.88-3.34-1.88s-5.14-3.52-3.9.44c.9 2.94 3.62 3.9 4.95 4.25.53.14.91.57 1 1.06.24 1.98-1.47 2.84-2.33 2.7C2.44 9.04 2.39 18 2.39 18.79c-.43.43-.81.91-1.05 1.4-.62 1.35-.53 4.68 1.43 1.4.19-.34.38-.68.57-.97 1.05.72 2.53.53 2.53.53l-.1.63a.98.98 0 0 0 .86 1.1l2.48.15c1.76.58 3.72 1.2 3.77-.48.04-1.69-4.58-1.4-4.58-1.4.48-1.35.33-2.22 1.14-2.46l2.72-.77c.38-.1.76.14.81.53.2 1.3.9 3.86 1.39 4.63.42.63 1.43.53 2.19.34.33-.1.48-.53.24-.77-2.15-2.32.04-4.93.04-4.93 2.77-2.75 2.87-5.45 2.82-6.41 0-.2.14-.39.33-.44 3.62-.63 3.3-2.22 3.3-2.22.23-2.17-2.49-2.9-4.3-3.13z" fill="#000" fill-rule="nonzero"/></svg>
