<svg viewBox="0 0 24 24" xmlns="http://www.w3.org/2000/svg"><path d="M16.6584227,15.3856305 L20.7363961,19.4636039 C21.087868,19.8150758 21.087868,20.3849242 20.7363961,20.7363961 C20.3849242,21.087868 19.8150758,21.087868 19.4636039,20.7363961 L15.3856305,16.6584227 C14.083067,17.6864667 12.4381827,18.3 10.65,18.3 C6.42502166,18.3 3,14.8749783 3,10.65 C3,6.42502166 6.42502166,3 10.65,3 C14.8749783,3 18.3,6.42502166 18.3,10.65 C18.3,12.4381827 17.6864667,14.083067 16.6584227,15.3856305 Z M14.843783,14.728569 C15.8687554,13.6748256 16.5,12.2361303 16.5,10.65 C16.5,7.41913421 13.8808658,4.8 10.65,4.8 C7.41913421,4.8 4.8,7.41913421 4.8,10.65 C4.8,13.8808658 7.41913421,16.5 10.65,16.5 C12.2361303,16.5 13.6748256,15.8687554 14.728569,14.843783 C14.7458412,14.8231059 14.7641862,14.8030216 14.7836039,14.7836039 C14.8030216,14.7641862 14.8231059,14.7458412 14.843783,14.728569 Z" fill="#000" fill-rule="nonzero"/></svg>
