<svg viewBox="0 0 24 24" xmlns="http://www.w3.org/2000/svg"><path d="M12.375 2.632v2.776l-.173.006C4.136 5.737 0 8.41 0 15.115c0 2.792 2.133 5.468 5.334 8.009l.194.147c.085.06.159.103.246.142l.082.033c.058.022.11.03.29.058l.185-.008c.235-.018.305-.076.688-.396l.14-.302c.072-.17.069-.22.059-.39l-.028-.173c-.005-.023-.012-.045-.023-.08-.043-.137-.273-.588-.293-.632a2.44 2.44 0 01-.126-.332l-.072-.258c-1.382-5.031-.045-6.794 5.271-7.12l.428-.023v3.091c0 1.812 2.064 2.83 3.391 1.58l7.563-7.125c.895-.844.895-2.316 0-3.159l-7.563-7.124c-1.327-1.25-3.391-.231-3.391 1.579zm2.02-.124l7.562 7.125c.057.053.057.193 0 .247l-7.562 7.125c-.003.002-.014-.002-.018-.065l-.002-5.196-1.347.023c-6.565.17-9.427 2.302-8.749 7.443l.044.307-.008-.008C2.874 17.985 2 16.469 2 15.115c0-5.53 3.395-7.566 11.01-7.724l1.365-.019v-4.74c0-.118.017-.127.02-.124z" fill="#000" fill-rule="nonzero"/></svg>
