<svg viewBox="0 0 24 24" xmlns="http://www.w3.org/2000/svg"><path d="M19.38 7.88c.37 0 .66.3.66.66v7.31h3.3c.18 0 .33.06.46.18a.54.54 0 010 .83l-4.61 5.46a.67.67 0 01-.46.18.67.67 0 01-.47-.18l-4.61-5.46a.54.54 0 010-.83.67.67 0 01.46-.18h3.3V8.54c0-.37.3-.66.66-.66h1.31zM7.25 18.25c.37 0 .66.3.66.66v1.34c0 .36-.3.66-.66.66H.65a.66.66 0 01-.65-.66V18.9c0-.37.3-.66.66-.66h6.6zm3.96-9.04c.36 0 .66.3.66.66v1.34c0 .36-.3.66-.66.66H.66A.66.66 0 010 11.2V9.87c0-.37.3-.66.66-.66H11.2zm7.91-7.71c.37 0 .66.3.66.66V3.5c0 .36-.3.66-.66.66H.66A.66.66 0 010 3.5V2.16c0-.36.3-.66.66-.66h18.46z" fill-rule="nonzero"/></svg>
