<svg viewBox="0 0 24 24" xmlns="http://www.w3.org/2000/svg"><path d="M18.36 9.45c1.34.51-3.5 5.25-7.72 5.9-.72.12-1.45.17-2.17.17-3.84 0-7.27-1.4-6.41-2.07 2.4-1.87 2.03-6.82 7.93-7.42L10.5 6c2.72 0 4.63 2.23 7.86 3.45zM1.49 14.28c.27.23.74.51 1.57.78l.38.11c-.07.05-.2.1-.44.16-1.04.25-3 .28-3-.08 0-.18.43-.59 1.1-.83l.4-.14zm14.45-.83s1.18 1.32 1.39 3.5c.05.59-.08.59-.44.6a7 7 0 0 1-2.33-.1c-.28-.15-.58-.1-.58-.56 0-.52-.04-1.15-.17-1.54-.13-.39-.22-.48-.22-.5.95-.47 1.77-.99 2.35-1.4zM4.68 15.72c.92.21 1.87.42 2.8.58.27.33.35.8.21 1.28a.58.58 0 0 1-.52.4c-.79.03-1.59.05-2.26-.13-.64-.17-.52-1.33-.35-1.86.01-.02.1-.25.12-.27zM23.84 8.9c.57 1.43-.46 3.12-1.69 3.75a7.8 7.8 0 0 1-4.25.77c-.25-.01-.8-.2-.98-.33.92-.76 2.42-2.15 2.54-3.27.01-.14.15-.81.42-1.13.27-.32 1.04-1.03 1.87-1.03.84 0 1.67.2 2.09 1.24z" fill="#000" fill-rule="nonzero"/></svg>
